<svg width="16" height="16" viewBox="0 0 16 16" fill="none" xmlns="http://www.w3.org/2000/svg">
<path d="M2 13.5C2 13.2031 2.04948 12.9193 2.14844 12.6484C2.2474 12.3776 2.38802 12.1328 2.57031 11.9141C2.7526 11.6953 2.96615 11.5104 3.21094 11.3594C3.45573 11.2083 3.72656 11.1042 4.02344 11.0469C4.07552 10.5208 4.21354 10.026 4.4375 9.5625C4.66146 9.09896 4.94792 8.6901 5.29688 8.33594C5.64583 7.98177 6.05208 7.6901 6.51562 7.46094C6.97917 7.23177 7.47396 7.08594 8 7.02344V4.95312C7.70833 4.89062 7.4401 4.78385 7.19531 4.63281C6.95052 4.48177 6.73958 4.29948 6.5625 4.08594C6.38542 3.8724 6.2474 3.6276 6.14844 3.35156C6.04948 3.07552 6 2.79167 6 2.5C6 2.15625 6.0651 1.83333 6.19531 1.53125C6.32552 1.22917 6.50521 0.963542 6.73438 0.734375C6.96354 0.505208 7.22917 0.325521 7.53125 0.195312C7.83333 0.0651042 8.15625 0 8.5 0C8.84375 0 9.16667 0.0651042 9.46875 0.195312C9.77083 0.325521 10.0365 0.502604 10.2656 0.726562C10.4948 0.950521 10.6745 1.21615 10.8047 1.52344C10.9349 1.83073 11 2.15625 11 2.5C11 2.79688 10.9505 3.08073 10.8516 3.35156C10.7526 3.6224 10.6146 3.86458 10.4375 4.07812C10.2604 4.29167 10.0495 4.47656 9.80469 4.63281C9.5599 4.78906 9.29167 4.89583 9 4.95312V7.02344C9.52604 7.08594 10.0182 7.23177 10.4766 7.46094C10.9349 7.6901 11.3411 7.98177 11.6953 8.33594C12.0495 8.6901 12.3385 9.09896 12.5625 9.5625C12.7865 10.026 12.9245 10.5208 12.9766 11.0469C13.2682 11.1042 13.5365 11.2083 13.7812 11.3594C14.026 11.5104 14.2396 11.6927 14.4219 11.9062C14.6042 12.1198 14.7448 12.3646 14.8438 12.6406C14.9427 12.9167 14.9948 13.2031 15 13.5C15 13.8438 14.9349 14.1667 14.8047 14.4688C14.6745 14.7708 14.4974 15.0339 14.2734 15.2578C14.0495 15.4818 13.7839 15.6615 13.4766 15.7969C13.1693 15.9323 12.8438 16 12.5 16C12.1562 16 11.8333 15.9349 11.5312 15.8047C11.2292 15.6745 10.9661 15.4948 10.7422 15.2656C10.5182 15.0365 10.3385 14.7708 10.2031 14.4688C10.0677 14.1667 10 13.8438 10 13.5C10 13.2083 10.0469 12.9297 10.1406 12.6641C10.2344 12.3984 10.3698 12.1562 10.5469 11.9375C10.724 11.7188 10.9323 11.5339 11.1719 11.3828C11.4115 11.2318 11.6771 11.1224 11.9688 11.0547C11.9167 10.6172 11.7891 10.2135 11.5859 9.84375C11.3828 9.47396 11.125 9.15104 10.8125 8.875C10.5 8.59896 10.1458 8.38542 9.75 8.23438C9.35417 8.08333 8.9375 8.00521 8.5 8C8.0625 8 7.64583 8.07552 7.25 8.22656C6.85417 8.3776 6.5026 8.59115 6.19531 8.86719C5.88802 9.14323 5.63021 9.46615 5.42188 9.83594C5.21354 10.2057 5.08333 10.612 5.03125 11.0547C5.31771 11.1172 5.58073 11.224 5.82031 11.375C6.0599 11.526 6.26823 11.7109 6.44531 11.9297C6.6224 12.1484 6.75781 12.3906 6.85156 12.6562C6.94531 12.9219 6.99479 13.2031 7 13.5C7 13.8438 6.9349 14.1667 6.80469 14.4688C6.67448 14.7708 6.4974 15.0339 6.27344 15.2578C6.04948 15.4818 5.78385 15.6615 5.47656 15.7969C5.16927 15.9323 4.84375 16 4.5 16C4.15625 16 3.83333 15.9349 3.53125 15.8047C3.22917 15.6745 2.96615 15.4948 2.74219 15.2656C2.51823 15.0365 2.33854 14.7708 2.20312 14.4688C2.06771 14.1667 2 13.8438 2 13.5ZM14 13.5C14 13.2917 13.9609 13.0964 13.8828 12.9141C13.8047 12.7318 13.6979 12.5729 13.5625 12.4375C13.4271 12.3021 13.2682 12.1953 13.0859 12.1172C12.9036 12.0391 12.7083 12 12.5 12C12.2917 12 12.0964 12.0391 11.9141 12.1172C11.7318 12.1953 11.5729 12.3021 11.4375 12.4375C11.3021 12.5729 11.1953 12.7318 11.1172 12.9141C11.0391 13.0964 11 13.2917 11 13.5C11 13.7083 11.0391 13.9036 11.1172 14.0859C11.1953 14.2682 11.3021 14.4271 11.4375 14.5625C11.5729 14.6979 11.7318 14.8047 11.9141 14.8828C12.0964 14.9609 12.2917 15 12.5 15C12.7083 15 12.9036 14.9609 13.0859 14.8828C13.2682 14.8047 13.4271 14.6979 13.5625 14.5625C13.6979 14.4271 13.8047 14.2682 13.8828 14.0859C13.9609 13.9036 14 13.7083 14 13.5ZM7 2.5C7 2.70833 7.03906 2.90365 7.11719 3.08594C7.19531 3.26823 7.30208 3.42708 7.4375 3.5625C7.57292 3.69792 7.73177 3.80469 7.91406 3.88281C8.09635 3.96094 8.29167 4 8.5 4C8.70833 4 8.90365 3.96094 9.08594 3.88281C9.26823 3.80469 9.42708 3.69792 9.5625 3.5625C9.69792 3.42708 9.80469 3.26823 9.88281 3.08594C9.96094 2.90365 10 2.70833 10 2.5C10 2.29167 9.96094 2.09635 9.88281 1.91406C9.80469 1.73177 9.69792 1.57292 9.5625 1.4375C9.42708 1.30208 9.26823 1.19531 9.08594 1.11719C8.90365 1.03906 8.70833 1 8.5 1C8.29167 1 8.09635 1.03906 7.91406 1.11719C7.73177 1.19531 7.57292 1.30208 7.4375 1.4375C7.30208 1.57292 7.19531 1.73177 7.11719 1.91406C7.03906 2.09635 7 2.29167 7 2.5ZM4.5 12C4.29167 12 4.09635 12.0391 3.91406 12.1172C3.73177 12.1953 3.57292 12.3021 3.4375 12.4375C3.30208 12.5729 3.19531 12.7318 3.11719 12.9141C3.03906 13.0964 3 13.2917 3 13.5C3 13.7083 3.03906 13.9036 3.11719 14.0859C3.19531 14.2682 3.30208 14.4271 3.4375 14.5625C3.57292 14.6979 3.73177 14.8047 3.91406 14.8828C4.09635 14.9609 4.29167 15 4.5 15C4.70833 15 4.90365 14.9609 5.08594 14.8828C5.26823 14.8047 5.42708 14.6979 5.5625 14.5625C5.69792 14.4271 5.80469 14.2682 5.88281 14.0859C5.96094 13.9036 6 13.7083 6 13.5C6 13.2917 5.96094 13.0964 5.88281 12.9141C5.80469 12.7318 5.69792 12.5729 5.5625 12.4375C5.42708 12.3021 5.26823 12.1953 5.08594 12.1172C4.90365 12.0391 4.70833 12 4.5 12Z" fill="black"/>
</svg>
