<svg width="340" height="340" viewBox="0 0 340 340" fill="none" xmlns="http://www.w3.org/2000/svg">
<circle cx="170" cy="170" r="166" stroke="black" stroke-width="8"/>
<circle cx="88" cy="179" r="10" stroke="black" stroke-width="6"/>
<circle cx="206" cy="285" r="10" stroke="black" stroke-width="6"/>
<circle cx="86" cy="117" r="10" stroke="black" stroke-width="6"/>
<circle cx="130" cy="77" r="10" stroke="black" stroke-width="6"/>
<circle cx="172" cy="45" r="10" stroke="black" stroke-width="6"/>
<circle cx="216" cy="77" r="10" stroke="black" stroke-width="6"/>
<circle cx="259" cy="109" r="10" stroke="black" stroke-width="6"/>
<circle cx="257" cy="166" r="10" stroke="black" stroke-width="6"/>
<path d="M131 279L131 253" stroke="black" stroke-width="8" stroke-linecap="round"/>
<path d="M144 265C144 267.209 145.791 269 148 269C150.209 269 152 267.209 152 265L148 265L144 265ZM148 258L144 258L144 265L148 265L152 265L152 258L148 258Z" fill="black"/>
<path d="M156 299L156 273" stroke="black" stroke-width="8" stroke-linecap="round"/>
<path d="M210 259C210 256.791 208.209 255 206 255C203.791 255 202 256.791 202 259L206 259L210 259ZM206 273L210 273L210 259L206 259L202 259L202 273L206 273Z" fill="black"/>
<path d="M191 266C191 263.791 189.209 262 187 262C184.791 262 183 263.791 183 266L187 266L191 266ZM187 292L191 292L191 266L187 266L183 266L183 292L187 292Z" fill="black"/>
<path d="M141 238C141 240.209 142.791 242 145 242C147.209 242 149 240.209 149 238L145 238L141 238ZM145 195L141 195L141 238L145 238L149 238L149 195L145 195Z" fill="black"/>
<path d="M153 249C153 251.209 154.791 253 157 253C159.209 253 161 251.209 161 249L157 249L153 249ZM157 158L153 158L153 249L157 249L161 249L161 158L157 158Z" fill="black"/>
<path d="M186 242C186 244.209 187.791 246 190 246C192.209 246 194 244.209 194 242L190 242L186 242ZM190 188L186 188L186 242L190 242L194 242L194 188L190 188Z" fill="black"/>
<path d="M172 144L172 250" stroke="black" stroke-width="8" stroke-linecap="round"/>
<path d="M126 125C126 127.209 127.791 129 130 129C132.209 129 134 127.209 134 125L130 125L126 125ZM130 87L126 87L126 125L130 125L134 125L134 87L130 87Z" fill="black"/>
<path d="M168 92C168 94.2091 169.791 96 172 96C174.209 96 176 94.2091 176 92L172 92L168 92ZM172 55L168 55L168 92L172 92L176 92L176 55L172 55Z" fill="black"/>
<path d="M212 101C212 103.209 213.791 105 216 105C218.209 105 220 103.209 220 101L216 101L212 101ZM216 87L212 87L212 101L216 101L220 101L220 87L216 87Z" fill="black"/>
<path d="M154 126C154 128.209 155.791 130 158 130C160.209 130 162 128.209 162 126L158 126L154 126ZM158 106L154 106L154 126L158 126L162 126L162 106L158 106Z" fill="black"/>
<path d="M184 148C184 150.209 185.791 152 188 152C190.209 152 192 150.209 192 148L188 148L184 148ZM188 128L184 128L184 148L188 148L192 148L192 128L188 128Z" fill="black"/>
<path d="M224 149C224 151.209 225.791 153 228 153C230.209 153 232 151.209 232 149L228 149L224 149ZM228 139L224 139L224 149L228 149L232 149L232 139L228 139Z" fill="black"/>
<path d="M128.076 250.271C126.568 251.886 126.656 254.417 128.271 255.924C129.886 257.432 132.417 257.344 133.924 255.729L131 253L128.076 250.271ZM145 238L142.076 235.271L128.076 250.271L131 253L133.924 255.729L147.924 240.729L145 238Z" fill="black"/>
<path d="M171.076 160.271C169.568 161.886 169.656 164.417 171.271 165.924C172.886 167.432 175.417 167.344 176.924 165.729L174 163L171.076 160.271ZM188 148L185.076 145.271L171.076 160.271L174 163L176.924 165.729L190.924 150.729L188 148Z" fill="black"/>
<path d="M145.172 255.172C143.609 256.734 143.609 259.266 145.172 260.828C146.734 262.391 149.266 262.391 150.828 260.828L148 258L145.172 255.172ZM158 248L155.172 245.172L145.172 255.172L148 258L150.828 260.828L160.828 250.828L158 248Z" fill="black"/>
<path d="M225.172 136.172C223.609 137.734 223.609 140.266 225.172 141.828C226.734 143.391 229.266 143.391 230.828 141.828L228 139L225.172 136.172ZM252 115L249.172 112.172L225.172 136.172L228 139L230.828 141.828L254.828 117.828L252 115Z" fill="black"/>
<path d="M155.172 103.172C153.609 104.734 153.609 107.266 155.172 108.828C156.734 110.391 159.266 110.391 160.828 108.828L158 106L155.172 103.172ZM173 91L170.172 88.1716L155.172 103.172L158 106L160.828 108.828L175.828 93.8284L173 91Z" fill="black"/>
<path d="M187.172 184.172C185.609 185.734 185.609 188.266 187.172 189.828C188.734 191.391 191.266 191.391 192.828 189.828L190 187L187.172 184.172ZM229 148L226.172 145.172L187.172 184.172L190 187L192.828 189.828L231.828 150.828L229 148Z" fill="black"/>
<path d="M185.172 126.172C183.609 127.734 183.609 130.266 185.172 131.828C186.734 133.391 189.266 133.391 190.828 131.828L188 129L185.172 126.172ZM216 101L213.172 98.1716L185.172 126.172L188 129L190.828 131.828L218.828 103.828L216 101Z" fill="black"/>
<path d="M142.172 196.828C143.734 198.391 146.266 198.391 147.828 196.828C149.391 195.266 149.391 192.734 147.828 191.172L145 194L142.172 196.828ZM130 179L127.172 181.828L142.172 196.828L145 194L147.828 191.172L132.828 176.172L130 179Z" fill="black"/>
<path d="M130 125L157 159" stroke="black" stroke-width="8" stroke-linecap="round"/>
<path d="M168.912 145.543C170.317 147.248 172.838 147.492 174.543 146.088C176.248 144.683 176.492 142.162 175.088 140.457L172 143L168.912 145.543ZM158 126L154.912 128.543L168.912 145.543L172 143L175.088 140.457L161.088 123.457L158 126Z" fill="black"/>
<path d="M122.172 158.828C123.734 160.391 126.266 160.391 127.828 158.828C129.391 157.266 129.391 154.734 127.828 153.172L125 156L122.172 158.828ZM94 125L91.1716 127.828L122.172 158.828L125 156L127.828 153.172L96.8284 122.172L94 125Z" fill="black"/>
<path d="M153.172 275.828C154.734 277.391 157.266 277.391 158.828 275.828C160.391 274.266 160.391 271.734 158.828 270.172L156 273L153.172 275.828ZM148 265L145.172 267.828L153.172 275.828L156 273L158.828 270.172L150.828 262.172L148 265Z" fill="black"/>
<path d="M184.172 267.828C185.734 269.391 188.266 269.391 189.828 267.828C191.391 266.266 191.391 263.734 189.828 262.172L187 265L184.172 267.828ZM171 249L168.172 251.828L184.172 267.828L187 265L189.828 262.172L173.828 246.172L171 249Z" fill="black"/>
<path d="M190 242L206 258" stroke="black" stroke-width="8" stroke-linecap="round"/>
<path d="M130 183C132.209 183 134 181.209 134 179C134 176.791 132.209 175 130 175L130 179L130 183ZM99 179L99 183L130 183L130 179L130 175L99 175L99 179Z" fill="black"/>
<path d="M125 156L156 156" stroke="black" stroke-width="8"/>
<path d="M210 166L246 166" stroke="black" stroke-width="8"/>
</svg>
