<svg width="179" height="180" viewBox="0 0 179 180" fill="none" xmlns="http://www.w3.org/2000/svg">
<g filter="url(#filter0_dd_260_44)">
<path d="M83.5 123C93.7771 123 103.633 118.891 110.9 111.577C118.167 104.263 122.25 94.3434 122.25 84C122.25 73.6566 118.167 63.7368 110.9 56.4228C103.633 49.1089 93.7771 45 83.5 45C73.2229 45 63.3666 49.1089 56.0996 56.4228C48.8326 63.7368 44.75 73.6566 44.75 84C44.75 94.3434 48.8326 104.263 56.0996 111.577C63.3666 118.891 73.2229 123 83.5 123ZM83.5 6C84.7846 6 86.0167 6.51361 86.925 7.42785C87.8334 8.34209 88.3438 9.58207 88.3438 10.875V30.375C88.3438 31.6679 87.8334 32.9079 86.925 33.8221C86.0167 34.7364 84.7846 35.25 83.5 35.25C82.2154 35.25 80.9833 34.7364 80.075 33.8221C79.1666 32.9079 78.6562 31.6679 78.6562 30.375V10.875C78.6562 9.58207 79.1666 8.34209 80.075 7.42785C80.9833 6.51361 82.2154 6 83.5 6ZM83.5 132.75C84.7846 132.75 86.0167 133.264 86.925 134.178C87.8334 135.092 88.3438 136.332 88.3438 137.625V157.125C88.3438 158.418 87.8334 159.658 86.925 160.572C86.0167 161.486 84.7846 162 83.5 162C82.2154 162 80.9833 161.486 80.075 160.572C79.1666 159.658 78.6562 158.418 78.6562 157.125V137.625C78.6562 136.332 79.1666 135.092 80.075 134.178C80.9833 133.264 82.2154 132.75 83.5 132.75ZM161 84C161 85.2929 160.49 86.5329 159.581 87.4472C158.673 88.3614 157.441 88.875 156.156 88.875H136.781C135.497 88.875 134.265 88.3614 133.356 87.4472C132.448 86.5329 131.938 85.2929 131.938 84C131.938 82.7071 132.448 81.4671 133.356 80.5529C134.265 79.6386 135.497 79.125 136.781 79.125H156.156C157.441 79.125 158.673 79.6386 159.581 80.5529C160.49 81.4671 161 82.7071 161 84ZM35.0625 84C35.0625 85.2929 34.5522 86.5329 33.6438 87.4472C32.7354 88.3614 31.5034 88.875 30.2188 88.875H10.8438C9.55911 88.875 8.32708 88.3614 7.4187 87.4472C6.51032 86.5329 6 85.2929 6 84C6 82.7071 6.51032 81.4671 7.4187 80.5529C8.32708 79.6386 9.55911 79.125 10.8438 79.125H30.2188C31.5034 79.125 32.7354 79.6386 33.6438 80.5529C34.5522 81.4671 35.0625 82.7071 35.0625 84ZM138.302 28.8442C139.21 29.7584 139.72 30.9982 139.72 32.2909C139.72 33.5836 139.21 34.8233 138.302 35.7375L124.604 49.5338C124.154 49.9864 123.619 50.3453 123.031 50.59C122.443 50.8347 121.813 50.9604 121.176 50.96C119.891 50.959 118.658 50.4443 117.75 49.5289C117.3 49.0756 116.944 48.5377 116.701 47.9457C116.458 47.3537 116.333 46.7194 116.333 46.0788C116.334 44.7852 116.845 43.5449 117.755 42.6307L131.453 28.8442C132.361 27.9303 133.593 27.4169 134.878 27.4169C136.162 27.4169 137.394 27.9303 138.302 28.8442ZM49.245 118.476C50.1531 119.39 50.6632 120.63 50.6632 121.923C50.6632 123.215 50.1531 124.455 49.245 125.369L35.5469 139.156C34.6333 140.044 33.4098 140.535 32.1398 140.524C30.8698 140.513 29.6549 140 28.7568 139.096C27.8587 138.193 27.3493 136.97 27.3383 135.692C27.3273 134.413 27.8155 133.182 28.6978 132.262L42.3959 118.476C43.3043 117.562 44.5361 117.049 45.8205 117.049C47.1049 117.049 48.3367 117.562 49.245 118.476ZM138.302 139.156C137.394 140.07 136.162 140.583 134.878 140.583C133.593 140.583 132.361 140.07 131.453 139.156L117.755 125.369C116.873 124.45 116.384 123.218 116.395 121.94C116.407 120.662 116.916 119.439 117.814 118.535C118.712 117.632 119.927 117.119 121.197 117.108C122.467 117.097 123.691 117.588 124.604 118.476L138.302 132.262C139.21 133.177 139.72 134.416 139.72 135.709C139.72 137.002 139.21 138.242 138.302 139.156ZM49.245 49.5338C48.3367 50.4477 47.1049 50.9611 45.8205 50.9611C44.5361 50.9611 43.3043 50.4477 42.3959 49.5338L28.6978 35.7375C28.2352 35.2878 27.8662 34.7499 27.6123 34.1551C27.3585 33.5603 27.2248 32.9206 27.2193 32.2733C27.2137 31.626 27.3362 30.9841 27.5798 30.385C27.8233 29.7859 28.183 29.2416 28.6378 28.7838C29.0926 28.3261 29.6334 27.9641 30.2287 27.719C30.8239 27.4739 31.4618 27.3505 32.1049 27.3562C32.7481 27.3618 33.3837 27.4963 33.9746 27.7518C34.5656 28.0072 35.1001 28.3786 35.5469 28.8442L49.245 42.6307C49.6961 43.0836 50.054 43.6216 50.2982 44.2138C50.5423 44.8061 50.668 45.441 50.668 46.0823C50.668 46.7235 50.5423 47.3584 50.2982 47.9507C50.054 48.5429 49.6961 49.0809 49.245 49.5338Z" fill="white"/>
<path d="M83.5 133.25C84.579 133.25 85.6171 133.655 86.4141 134.381L86.5703 134.53C87.3853 135.35 87.8438 136.464 87.8438 137.625V157.125C87.8438 158.214 87.4407 159.26 86.7188 160.062L86.5703 160.22C85.7555 161.04 84.651 161.5 83.5 161.5C82.349 161.5 81.2445 161.04 80.4297 160.22C79.6147 159.4 79.1562 158.286 79.1562 157.125V137.625C79.1562 136.464 79.6147 135.35 80.4297 134.53C81.2445 133.71 82.349 133.25 83.5 133.25ZM121.201 117.607C122.268 117.598 123.299 117.985 124.099 118.689L124.256 118.835L137.947 132.615C138.762 133.435 139.221 134.548 139.221 135.709C139.221 136.87 138.762 137.984 137.947 138.804C137.133 139.623 136.028 140.083 134.878 140.083C133.727 140.083 132.622 139.623 131.808 138.804L118.116 125.023C117.325 124.199 116.886 123.092 116.896 121.944C116.905 120.796 117.363 119.699 118.169 118.888C118.975 118.077 120.063 117.617 121.201 117.607ZM45.8203 117.549C46.9711 117.549 48.0758 118.008 48.8906 118.828C49.7053 119.648 50.1631 120.762 50.1631 121.923C50.163 123.084 49.7051 124.197 48.8906 125.017L35.1982 138.797C34.3789 139.593 33.2823 140.034 32.1445 140.024C31.0066 140.014 29.9169 139.555 29.1113 138.744C28.3057 137.933 27.8479 136.836 27.8379 135.688C27.828 134.542 28.2649 133.439 29.0527 132.615L42.751 118.828C43.5657 118.009 44.6698 117.549 45.8203 117.549ZM83.5 45.5C93.6435 45.5 103.372 49.5556 110.546 56.7754C117.719 63.9953 121.75 73.7882 121.75 84C121.75 94.2118 117.719 104.005 110.546 111.225C103.372 118.444 93.6435 122.5 83.5 122.5C73.3565 122.5 63.6276 118.444 56.4541 111.225C49.2806 104.005 45.25 94.2118 45.25 84C45.25 73.7882 49.2806 63.9953 56.4541 56.7754C63.6276 49.5556 73.3565 45.5 83.5 45.5ZM10.8438 79.625H30.2188C31.3697 79.625 32.4742 80.0852 33.2891 80.9053C34.104 81.7255 34.5625 82.8386 34.5625 84C34.5625 85.1614 34.104 86.2745 33.2891 87.0947C32.4742 87.9148 31.3697 88.375 30.2188 88.375H10.8438C9.69277 88.375 8.5883 87.9148 7.77344 87.0947C6.95847 86.2745 6.5 85.1614 6.5 84C6.5 82.8386 6.95847 81.7255 7.77344 80.9053C8.5883 80.0852 9.69277 79.625 10.8438 79.625ZM136.781 79.625H156.156C157.307 79.625 158.412 80.0852 159.227 80.9053C160.042 81.7255 160.5 82.8386 160.5 84C160.5 85.1614 160.042 86.2745 159.227 87.0947C158.412 87.9148 157.307 88.375 156.156 88.375H136.781C135.63 88.375 134.526 87.9148 133.711 87.0947C132.896 86.2745 132.438 85.1614 132.438 84C132.438 82.8386 132.896 81.7255 133.711 80.9053C134.526 80.0852 135.63 79.625 136.781 79.625ZM32.1006 27.8564C32.6769 27.8615 33.2467 27.9819 33.7764 28.2109C34.306 28.44 34.7857 28.7728 35.1865 29.1904L35.1924 29.1963L48.8906 42.9834C49.2953 43.3896 49.6167 43.8726 49.8359 44.4043C50.0551 44.936 50.1679 45.5062 50.168 46.082C50.168 46.6578 50.0551 47.2281 49.8359 47.7598C49.6167 48.2915 49.2953 48.7744 48.8906 49.1807V49.1816C48.0758 50.0014 46.9711 50.4609 45.8203 50.4609C44.6698 50.4609 43.5657 50.0012 42.751 49.1816L29.0527 35.3848L29.0459 35.3789C28.631 34.9756 28.3001 34.4928 28.0723 33.959C27.8443 33.425 27.7238 32.8499 27.7188 32.2686C27.7138 31.6874 27.8244 31.111 28.043 30.5732C28.2616 30.0355 28.5844 29.5473 28.9922 29.1367C29.4001 28.7261 29.8854 28.4014 30.4189 28.1816C30.9525 27.9619 31.5243 27.8514 32.1006 27.8564ZM134.878 27.917C136.028 27.9171 137.133 28.3767 137.947 29.1963C138.762 30.0165 139.221 31.1299 139.221 32.291C139.221 33.452 138.762 34.5646 137.947 35.3848L124.25 49.1807C123.846 49.5867 123.366 49.9086 122.839 50.1279C122.312 50.3473 121.747 50.4603 121.177 50.46C120.025 50.4591 118.92 49.9978 118.105 49.1768C117.702 48.7701 117.381 48.2873 117.163 47.7559C116.945 47.2243 116.833 46.6544 116.833 46.0791C116.834 44.9896 117.238 43.943 117.961 43.1406L118.109 42.9834L131.808 29.1963C132.622 28.3765 133.727 27.917 134.878 27.917ZM83.5 6.5C84.651 6.5 85.7555 6.96017 86.5703 7.78027C87.3853 8.6005 87.8438 9.71364 87.8438 10.875V30.375C87.8438 31.5364 87.3853 32.6495 86.5703 33.4697C85.7555 34.2898 84.651 34.75 83.5 34.75C82.349 34.75 81.2445 34.2898 80.4297 33.4697C79.6147 32.6495 79.1562 31.5364 79.1562 30.375V10.875C79.1562 9.71364 79.6147 8.6005 80.4297 7.78027C81.2445 6.96017 82.349 6.5 83.5 6.5Z" stroke="black"/>
</g>
<defs>
<filter id="filter0_dd_260_44" x="0" y="0" width="179" height="180" filterUnits="userSpaceOnUse" color-interpolation-filters="sRGB">
<feFlood flood-opacity="0" result="BackgroundImageFix"/>
<feColorMatrix in="SourceAlpha" type="matrix" values="0 0 0 0 0 0 0 0 0 0 0 0 0 0 0 0 0 0 127 0" result="hardAlpha"/>
<feOffset dx="6" dy="6"/>
<feGaussianBlur stdDeviation="6"/>
<feComposite in2="hardAlpha" operator="out"/>
<feColorMatrix type="matrix" values="0 0 0 0 0 0 0 0 0 0 0 0 0 0 0 0 0 0 0.25 0"/>
<feBlend mode="normal" in2="BackgroundImageFix" result="effect1_dropShadow_260_44"/>
<feColorMatrix in="SourceAlpha" type="matrix" values="0 0 0 0 0 0 0 0 0 0 0 0 0 0 0 0 0 0 127 0" result="hardAlpha"/>
<feOffset dx="2" dy="2"/>
<feGaussianBlur stdDeviation="3"/>
<feComposite in2="hardAlpha" operator="out"/>
<feColorMatrix type="matrix" values="0 0 0 0 0 0 0 0 0 0 0 0 0 0 0 0 0 0 0.25 0"/>
<feBlend mode="normal" in2="effect1_dropShadow_260_44" result="effect2_dropShadow_260_44"/>
<feBlend mode="normal" in="SourceGraphic" in2="effect2_dropShadow_260_44" result="shape"/>
</filter>
</defs>
</svg>
