<svg width="26" height="26" viewBox="0 0 26 26" fill="none" xmlns="http://www.w3.org/2000/svg">
<mask id="path-1-inside-1_396_18" fill="white">
<path d="M15.9453 1.625C16.8546 1.62508 17.7329 1.95489 18.4175 2.55327C19.1021 3.15165 19.5465 3.978 19.6682 4.87906C20.4929 4.91366 21.2875 5.19863 21.9461 5.69606C22.6048 6.19348 23.0964 6.87975 23.3553 7.66348C23.6143 8.44722 23.6284 9.29125 23.3957 10.0832C23.163 10.8751 22.6946 11.5774 22.0529 12.0965C22.7626 12.5327 23.3486 13.1436 23.7551 13.8707C24.1617 14.5978 24.3751 15.417 24.375 16.25V16.6562C24.3747 17.7355 23.9838 18.7782 23.2746 19.5917C22.5653 20.4052 21.5856 20.9346 20.5164 21.0819L20.3791 21.5239C20.121 22.3503 19.6056 23.0725 18.9081 23.5854C18.2107 24.0983 17.3676 24.3749 16.5019 24.375H16.25C15.6192 24.3749 14.9972 24.2279 14.4331 23.9457C13.869 23.6636 13.3783 23.2539 13 22.7492C12.6217 23.2539 12.131 23.6636 11.5669 23.9457C11.0028 24.2279 10.3808 24.3749 9.75 24.375H9.49812C8.6324 24.3749 7.78934 24.0983 7.09188 23.5854C6.39442 23.0725 5.87903 22.3503 5.62088 21.5239L5.48356 21.0819C4.4144 20.9346 3.43469 20.4052 2.72543 19.5917C2.01617 18.7782 1.62529 17.7355 1.625 16.6562V16.25C1.62494 15.417 1.83834 14.5978 2.24486 13.8707C2.65138 13.1436 3.23744 12.5327 3.94712 12.0965C3.30539 11.5774 2.837 10.8751 2.60432 10.0832C2.37164 9.29125 2.38572 8.44722 2.64467 7.66348C2.90362 6.87975 3.39517 6.19348 4.05385 5.69606C4.71254 5.19863 5.50713 4.91366 6.33181 4.87906C6.4305 4.14865 6.74185 3.46341 7.22709 2.90863C7.71233 2.35386 8.35004 1.95407 9.06081 1.75903C9.77158 1.56399 10.524 1.58233 11.2245 1.81176C11.9249 2.04118 12.5424 2.47156 13 3.04931C13.3516 2.60501 13.7992 2.24607 14.3093 1.9994C14.8194 1.75273 15.3787 1.62473 15.9453 1.625ZM10.0547 3.25C9.48903 3.25 8.94654 3.47471 8.54656 3.87469C8.14658 4.27467 7.92188 4.81716 7.92188 5.38281V5.6875C7.92188 5.90299 7.83627 6.10965 7.6839 6.26202C7.53153 6.4144 7.32486 6.5 7.10938 6.5H6.5C5.86449 6.50018 5.25419 6.74856 4.79915 7.19219C4.34411 7.63582 4.08032 8.23962 4.06401 8.87492C4.04769 9.51021 4.28013 10.1268 4.7118 10.5932C5.14346 11.0596 5.74022 11.3389 6.37488 11.3718L6.5 11.375H6.90625C7.66046 11.375 8.38378 11.6746 8.91708 12.2079C9.45039 12.7412 9.75 13.4645 9.75 14.2188V14.7664C10.2926 14.9573 10.7502 15.3342 11.0416 15.8302C11.333 16.3261 11.4395 16.9092 11.3422 17.4762C11.2449 18.0432 10.95 18.5574 10.5099 18.9278C10.0698 19.2982 9.51275 19.5009 8.9375 19.5C8.36349 19.4987 7.80835 19.2949 7.36989 18.9244C6.93143 18.5539 6.63778 18.0406 6.54067 17.4749C6.44356 16.9091 6.54923 16.3273 6.83906 15.8318C7.12889 15.3363 7.58428 14.959 8.125 14.7664V14.2188C8.125 13.8955 7.9966 13.5855 7.76804 13.357C7.53948 13.1284 7.22948 13 6.90625 13H6.5L6.33262 13.0041C5.50071 13.047 4.71703 13.4077 4.14338 14.0117C3.56974 14.6157 3.24994 15.417 3.25 16.25V16.6562C3.25 17.4105 3.54961 18.1338 4.08292 18.6671C4.61622 19.2004 5.33954 19.5 6.09375 19.5C6.24482 19.5 6.3929 19.5421 6.52136 19.6216C6.64982 19.7012 6.75356 19.8149 6.82094 19.9501L6.86969 20.0704L7.17194 21.0389C7.32674 21.5347 7.63591 21.9682 8.05436 22.276C8.47281 22.5838 8.97866 22.7499 9.49812 22.75H9.75C10.3965 22.75 11.0165 22.4932 11.4736 22.0361C11.9307 21.579 12.1875 20.959 12.1875 20.3125V9.75H11.2336C11.0427 10.2926 10.6658 10.7502 10.1698 11.0416C9.67387 11.333 9.09076 11.4395 8.52379 11.3422C7.95683 11.2449 7.4426 10.95 7.07219 10.5099C6.70177 10.0698 6.49908 9.51276 6.5 8.9375C6.5013 8.36349 6.70515 7.80835 7.07561 7.36989C7.44608 6.93143 7.9594 6.63778 8.52514 6.54067C9.09088 6.44356 9.67274 6.54923 10.1682 6.83906C10.6637 7.12889 11.041 7.58428 11.2336 8.125H12.1875V5.38281C12.1875 4.81716 11.9628 4.27467 11.5628 3.87469C11.1628 3.47471 10.6203 3.25 10.0547 3.25ZM20.1476 13.065C20.0206 13.3924 19.8245 13.6886 19.5724 13.9331C19.3204 14.1777 19.0186 14.3649 18.6875 14.482V15.0304C18.6875 15.7846 18.3879 16.508 17.8546 17.0413C17.3213 17.5746 16.598 17.8742 15.8438 17.8742H13.8125V20.3117C13.8125 20.9582 14.0693 21.5781 14.5264 22.0353C14.9835 22.4924 15.6035 22.7492 16.25 22.7492H16.5019C17.0212 22.7491 17.527 22.5832 17.9454 22.2755C18.3639 21.9679 18.6731 21.5346 18.8281 21.0389L19.1311 20.0696L19.1799 19.9493C19.2472 19.8142 19.3508 19.7005 19.4791 19.621C19.6074 19.5415 19.7553 19.4993 19.9062 19.4992C20.6605 19.4992 21.3838 19.1996 21.9171 18.6663C22.4504 18.133 22.75 17.4096 22.75 16.6554V16.25C22.75 15.5004 22.491 14.7739 22.0167 14.1935C21.5424 13.613 20.8821 13.2144 20.1476 13.065ZM8.9375 16.25C8.72201 16.25 8.51535 16.3356 8.36298 16.488C8.2106 16.6403 8.125 16.847 8.125 17.0625C8.125 17.278 8.2106 17.4847 8.36298 17.637C8.51535 17.7894 8.72201 17.875 8.9375 17.875C9.15299 17.875 9.35965 17.7894 9.51202 17.637C9.6644 17.4847 9.75 17.278 9.75 17.0625C9.75 16.847 9.6644 16.6403 9.51202 16.488C9.35965 16.3356 9.15299 16.25 8.9375 16.25ZM15.9453 3.25C15.3797 3.25 14.8372 3.47471 14.4372 3.87469C14.0372 4.27467 13.8125 4.81716 13.8125 5.38281V16.25H15.8438C16.167 16.25 16.477 16.1216 16.7055 15.893C16.9341 15.6645 17.0625 15.3545 17.0625 15.0312V14.4828C16.6782 14.347 16.3342 14.1169 16.0619 13.8136C15.7896 13.5103 15.5977 13.1435 15.5039 12.7469C15.4101 12.3502 15.4173 11.9364 15.5249 11.5433C15.6325 11.1501 15.837 10.7903 16.1197 10.4967C16.4024 10.2031 16.7543 9.9851 17.143 9.86273C17.5318 9.74035 17.9451 9.71749 18.345 9.79624C18.7449 9.87499 19.1187 10.0528 19.432 10.3135C19.7454 10.5741 19.9883 10.9092 20.1386 11.2881C20.7095 11.1344 21.2051 10.7784 21.5329 10.2864C21.8607 9.79432 21.9983 9.19986 21.9201 8.61383C21.842 8.02779 21.5533 7.49019 21.108 7.10126C20.6628 6.71234 20.0912 6.49863 19.5 6.5H18.8906C18.6751 6.5 18.4685 6.4144 18.3161 6.26202C18.1637 6.10965 18.0781 5.90299 18.0781 5.6875V5.38281C18.0781 5.10273 18.023 4.82539 17.9158 4.56662C17.8086 4.30786 17.6515 4.07274 17.4534 3.87469C17.2554 3.67664 17.0203 3.51953 16.7615 3.41235C16.5027 3.30517 16.2254 3.25 15.9453 3.25ZM17.875 11.375C17.6595 11.375 17.4528 11.4606 17.3005 11.613C17.1481 11.7654 17.0625 11.972 17.0625 12.1875C17.0625 12.403 17.1481 12.6097 17.3005 12.762C17.4528 12.9144 17.6595 13 17.875 13C18.0905 13 18.2972 12.9144 18.4495 12.762C18.6019 12.6097 18.6875 12.403 18.6875 12.1875C18.6875 11.972 18.6019 11.7654 18.4495 11.613C18.2972 11.4606 18.0905 11.375 17.875 11.375ZM8.9375 8.125C8.72201 8.125 8.51535 8.2106 8.36298 8.36298C8.2106 8.51535 8.125 8.72201 8.125 8.9375C8.125 9.15299 8.2106 9.35965 8.36298 9.51202C8.51535 9.6644 8.72201 9.75 8.9375 9.75C9.15299 9.75 9.35965 9.6644 9.51202 9.51202C9.6644 9.35965 9.75 9.15299 9.75 8.9375C9.75 8.72201 9.6644 8.51535 9.51202 8.36298C9.35965 8.2106 9.15299 8.125 8.9375 8.125Z"/>
</mask>
<path d="M15.9453 1.625C16.8546 1.62508 17.7329 1.95489 18.4175 2.55327C19.1021 3.15165 19.5465 3.978 19.6682 4.87906C20.4929 4.91366 21.2875 5.19863 21.9461 5.69606C22.6048 6.19348 23.0964 6.87975 23.3553 7.66348C23.6143 8.44722 23.6284 9.29125 23.3957 10.0832C23.163 10.8751 22.6946 11.5774 22.0529 12.0965C22.7626 12.5327 23.3486 13.1436 23.7551 13.8707C24.1617 14.5978 24.3751 15.417 24.375 16.25V16.6562C24.3747 17.7355 23.9838 18.7782 23.2746 19.5917C22.5653 20.4052 21.5856 20.9346 20.5164 21.0819L20.3791 21.5239C20.121 22.3503 19.6056 23.0725 18.9081 23.5854C18.2107 24.0983 17.3676 24.3749 16.5019 24.375H16.25C15.6192 24.3749 14.9972 24.2279 14.4331 23.9457C13.869 23.6636 13.3783 23.2539 13 22.7492C12.6217 23.2539 12.131 23.6636 11.5669 23.9457C11.0028 24.2279 10.3808 24.3749 9.75 24.375H9.49812C8.6324 24.3749 7.78934 24.0983 7.09188 23.5854C6.39442 23.0725 5.87903 22.3503 5.62088 21.5239L5.48356 21.0819C4.4144 20.9346 3.43469 20.4052 2.72543 19.5917C2.01617 18.7782 1.62529 17.7355 1.625 16.6562V16.25C1.62494 15.417 1.83834 14.5978 2.24486 13.8707C2.65138 13.1436 3.23744 12.5327 3.94712 12.0965C3.30539 11.5774 2.837 10.8751 2.60432 10.0832C2.37164 9.29125 2.38572 8.44722 2.64467 7.66348C2.90362 6.87975 3.39517 6.19348 4.05385 5.69606C4.71254 5.19863 5.50713 4.91366 6.33181 4.87906C6.4305 4.14865 6.74185 3.46341 7.22709 2.90863C7.71233 2.35386 8.35004 1.95407 9.06081 1.75903C9.77158 1.56399 10.524 1.58233 11.2245 1.81176C11.9249 2.04118 12.5424 2.47156 13 3.04931C13.3516 2.60501 13.7992 2.24607 14.3093 1.9994C14.8194 1.75273 15.3787 1.62473 15.9453 1.625ZM10.0547 3.25C9.48903 3.25 8.94654 3.47471 8.54656 3.87469C8.14658 4.27467 7.92188 4.81716 7.92188 5.38281V5.6875C7.92188 5.90299 7.83627 6.10965 7.6839 6.26202C7.53153 6.4144 7.32486 6.5 7.10938 6.5H6.5C5.86449 6.50018 5.25419 6.74856 4.79915 7.19219C4.34411 7.63582 4.08032 8.23962 4.06401 8.87492C4.04769 9.51021 4.28013 10.1268 4.7118 10.5932C5.14346 11.0596 5.74022 11.3389 6.37488 11.3718L6.5 11.375H6.90625C7.66046 11.375 8.38378 11.6746 8.91708 12.2079C9.45039 12.7412 9.75 13.4645 9.75 14.2188V14.7664C10.2926 14.9573 10.7502 15.3342 11.0416 15.8302C11.333 16.3261 11.4395 16.9092 11.3422 17.4762C11.2449 18.0432 10.95 18.5574 10.5099 18.9278C10.0698 19.2982 9.51275 19.5009 8.9375 19.5C8.36349 19.4987 7.80835 19.2949 7.36989 18.9244C6.93143 18.5539 6.63778 18.0406 6.54067 17.4749C6.44356 16.9091 6.54923 16.3273 6.83906 15.8318C7.12889 15.3363 7.58428 14.959 8.125 14.7664V14.2188C8.125 13.8955 7.9966 13.5855 7.76804 13.357C7.53948 13.1284 7.22948 13 6.90625 13H6.5L6.33262 13.0041C5.50071 13.047 4.71703 13.4077 4.14338 14.0117C3.56974 14.6157 3.24994 15.417 3.25 16.25V16.6562C3.25 17.4105 3.54961 18.1338 4.08292 18.6671C4.61622 19.2004 5.33954 19.5 6.09375 19.5C6.24482 19.5 6.3929 19.5421 6.52136 19.6216C6.64982 19.7012 6.75356 19.8149 6.82094 19.9501L6.86969 20.0704L7.17194 21.0389C7.32674 21.5347 7.63591 21.9682 8.05436 22.276C8.47281 22.5838 8.97866 22.7499 9.49812 22.75H9.75C10.3965 22.75 11.0165 22.4932 11.4736 22.0361C11.9307 21.579 12.1875 20.959 12.1875 20.3125V9.75H11.2336C11.0427 10.2926 10.6658 10.7502 10.1698 11.0416C9.67387 11.333 9.09076 11.4395 8.52379 11.3422C7.95683 11.2449 7.4426 10.95 7.07219 10.5099C6.70177 10.0698 6.49908 9.51276 6.5 8.9375C6.5013 8.36349 6.70515 7.80835 7.07561 7.36989C7.44608 6.93143 7.9594 6.63778 8.52514 6.54067C9.09088 6.44356 9.67274 6.54923 10.1682 6.83906C10.6637 7.12889 11.041 7.58428 11.2336 8.125H12.1875V5.38281C12.1875 4.81716 11.9628 4.27467 11.5628 3.87469C11.1628 3.47471 10.6203 3.25 10.0547 3.25ZM20.1476 13.065C20.0206 13.3924 19.8245 13.6886 19.5724 13.9331C19.3204 14.1777 19.0186 14.3649 18.6875 14.482V15.0304C18.6875 15.7846 18.3879 16.508 17.8546 17.0413C17.3213 17.5746 16.598 17.8742 15.8438 17.8742H13.8125V20.3117C13.8125 20.9582 14.0693 21.5781 14.5264 22.0353C14.9835 22.4924 15.6035 22.7492 16.25 22.7492H16.5019C17.0212 22.7491 17.527 22.5832 17.9454 22.2755C18.3639 21.9679 18.6731 21.5346 18.8281 21.0389L19.1311 20.0696L19.1799 19.9493C19.2472 19.8142 19.3508 19.7005 19.4791 19.621C19.6074 19.5415 19.7553 19.4993 19.9062 19.4992C20.6605 19.4992 21.3838 19.1996 21.9171 18.6663C22.4504 18.133 22.75 17.4096 22.75 16.6554V16.25C22.75 15.5004 22.491 14.7739 22.0167 14.1935C21.5424 13.613 20.8821 13.2144 20.1476 13.065ZM8.9375 16.25C8.72201 16.25 8.51535 16.3356 8.36298 16.488C8.2106 16.6403 8.125 16.847 8.125 17.0625C8.125 17.278 8.2106 17.4847 8.36298 17.637C8.51535 17.7894 8.72201 17.875 8.9375 17.875C9.15299 17.875 9.35965 17.7894 9.51202 17.637C9.6644 17.4847 9.75 17.278 9.75 17.0625C9.75 16.847 9.6644 16.6403 9.51202 16.488C9.35965 16.3356 9.15299 16.25 8.9375 16.25ZM15.9453 3.25C15.3797 3.25 14.8372 3.47471 14.4372 3.87469C14.0372 4.27467 13.8125 4.81716 13.8125 5.38281V16.25H15.8438C16.167 16.25 16.477 16.1216 16.7055 15.893C16.9341 15.6645 17.0625 15.3545 17.0625 15.0312V14.4828C16.6782 14.347 16.3342 14.1169 16.0619 13.8136C15.7896 13.5103 15.5977 13.1435 15.5039 12.7469C15.4101 12.3502 15.4173 11.9364 15.5249 11.5433C15.6325 11.1501 15.837 10.7903 16.1197 10.4967C16.4024 10.2031 16.7543 9.9851 17.143 9.86273C17.5318 9.74035 17.9451 9.71749 18.345 9.79624C18.7449 9.87499 19.1187 10.0528 19.432 10.3135C19.7454 10.5741 19.9883 10.9092 20.1386 11.2881C20.7095 11.1344 21.2051 10.7784 21.5329 10.2864C21.8607 9.79432 21.9983 9.19986 21.9201 8.61383C21.842 8.02779 21.5533 7.49019 21.108 7.10126C20.6628 6.71234 20.0912 6.49863 19.5 6.5H18.8906C18.6751 6.5 18.4685 6.4144 18.3161 6.26202C18.1637 6.10965 18.0781 5.90299 18.0781 5.6875V5.38281C18.0781 5.10273 18.023 4.82539 17.9158 4.56662C17.8086 4.30786 17.6515 4.07274 17.4534 3.87469C17.2554 3.67664 17.0203 3.51953 16.7615 3.41235C16.5027 3.30517 16.2254 3.25 15.9453 3.25ZM17.875 11.375C17.6595 11.375 17.4528 11.4606 17.3005 11.613C17.1481 11.7654 17.0625 11.972 17.0625 12.1875C17.0625 12.403 17.1481 12.6097 17.3005 12.762C17.4528 12.9144 17.6595 13 17.875 13C18.0905 13 18.2972 12.9144 18.4495 12.762C18.6019 12.6097 18.6875 12.403 18.6875 12.1875C18.6875 11.972 18.6019 11.7654 18.4495 11.613C18.2972 11.4606 18.0905 11.375 17.875 11.375ZM8.9375 8.125C8.72201 8.125 8.51535 8.2106 8.36298 8.36298C8.2106 8.51535 8.125 8.72201 8.125 8.9375C8.125 9.15299 8.2106 9.35965 8.36298 9.51202C8.51535 9.6644 8.72201 9.75 8.9375 9.75C9.15299 9.75 9.35965 9.6644 9.51202 9.51202C9.6644 9.35965 9.75 9.15299 9.75 8.9375C9.75 8.72201 9.6644 8.51535 9.51202 8.36298C9.35965 8.2106 9.15299 8.125 8.9375 8.125Z" fill="white" stroke="black" stroke-width="0.2" mask="url(#path-1-inside-1_396_18)"/>
</svg>
