<svg width="27" height="27" viewBox="0 0 27 27" fill="none" xmlns="http://www.w3.org/2000/svg">
<path d="M10.7578 2.25C11.4915 2.24903 12.2061 2.48324 12.7969 2.91825V8.85938H11.1375C10.9703 8.35115 10.6275 7.91913 10.1705 7.64084C9.71358 7.36254 9.17242 7.25619 8.64414 7.34085C8.11585 7.42552 7.63503 7.69566 7.28793 8.10281C6.94084 8.50997 6.75019 9.02748 6.75019 9.5625C6.75019 10.0975 6.94084 10.615 7.28793 11.0222C7.63503 11.4293 8.11585 11.6995 8.64414 11.7842C9.17242 11.8688 9.71358 11.7625 10.1705 11.4842C10.6275 11.2059 10.9703 10.7739 11.1375 10.2656H12.7969V23.7634C12.0622 24.4008 11.1218 24.7512 10.1492 24.75C9.29841 24.7497 8.46926 24.4819 7.77908 23.9844C7.08891 23.487 6.57265 22.785 6.30338 21.978L6.09244 21.3429C5.03353 21.2165 4.0577 20.7063 3.34962 19.9088C2.64154 19.1114 2.25032 18.0821 2.25 17.0156C2.25 15.876 2.68875 14.8388 3.40481 14.0625H7.3125C7.85588 14.0625 8.29688 14.5035 8.29688 15.0469V15.3C7.78865 15.4672 7.35663 15.81 7.07834 16.267C6.80004 16.7239 6.69369 17.2651 6.77835 17.7934C6.86301 18.3216 7.13316 18.8025 7.54031 19.1496C7.94746 19.4967 8.46498 19.6873 9 19.6873C9.53502 19.6873 10.0525 19.4967 10.4597 19.1496C10.8668 18.8025 11.137 18.3216 11.2217 17.7934C11.3063 17.2651 11.2 16.7239 10.9217 16.267C10.6434 15.81 10.2114 15.4672 9.70312 15.3V15.0469C9.70312 14.4128 9.45126 13.8048 9.00293 13.3565C8.5546 12.9081 7.94653 12.6563 7.3125 12.6563H4.45388C3.75855 11.8846 3.37413 10.8825 3.375 9.84375C3.37522 8.77341 3.78226 7.74317 4.51368 6.96172C5.2451 6.18028 6.2462 5.70606 7.31419 5.63513C7.32968 4.73204 7.69929 3.87118 8.34341 3.23801C8.98753 2.60483 9.8546 2.25002 10.7578 2.25ZM16.2422 2.25C17.1454 2.25002 18.0125 2.60483 18.6566 3.23801C19.3007 3.87118 19.6703 4.73204 19.6858 5.63513C20.7538 5.70606 21.7549 6.18028 22.4863 6.96172C23.2177 7.74317 23.6248 8.77341 23.625 9.84375C23.6253 10.4492 23.4949 11.0475 23.2428 11.5979C22.9907 12.1484 22.6228 12.6379 22.1642 13.0331C23.0355 13.4217 23.7552 14.0853 24.2131 14.9222C24.671 15.7591 24.8417 16.7231 24.6991 17.6664C24.5564 18.6096 24.1083 19.4801 23.4234 20.1442C22.7386 20.8083 21.8548 21.2294 20.9076 21.3429L20.6966 21.9786C20.4273 22.7855 19.911 23.4873 19.2208 23.9847C18.5306 24.482 17.7015 24.7498 16.8508 24.75C15.8383 24.75 14.9136 24.3771 14.2031 23.7634V18.1406H16.3125C16.9465 18.1406 17.5546 17.8888 18.0029 17.4404C18.4513 16.9921 18.7031 16.384 18.7031 15.75V15.6369C19.2114 15.4697 19.6434 15.1269 19.9217 14.67C20.2 14.213 20.3063 13.6719 20.2217 13.1436C20.137 12.6153 19.8668 12.1345 19.4597 11.7874C19.0525 11.4403 18.535 11.2496 18 11.2496C17.465 11.2496 16.9475 11.4403 16.5403 11.7874C16.1332 12.1345 15.863 12.6153 15.7783 13.1436C15.6937 13.6719 15.8 14.213 16.0783 14.67C16.3566 15.1269 16.7886 15.4697 17.2969 15.6369V15.75C17.2969 16.0111 17.1932 16.2615 17.0086 16.4461C16.824 16.6307 16.5736 16.7344 16.3125 16.7344H14.2031V2.91825C14.7939 2.48324 15.5085 2.24903 16.2422 2.25ZM9 16.5938C9.22378 16.5938 9.43839 16.6826 9.59662 16.8409C9.75485 16.9991 9.84375 17.2137 9.84375 17.4375C9.84375 17.6613 9.75485 17.8759 9.59662 18.0341C9.43839 18.1924 9.22378 18.2813 9 18.2813C8.77622 18.2813 8.56161 18.1924 8.40338 18.0341C8.24514 17.8759 8.15625 17.6613 8.15625 17.4375C8.15625 17.2137 8.24514 16.9991 8.40338 16.8409C8.56161 16.6826 8.77622 16.5938 9 16.5938ZM18 12.6563C18.2238 12.6563 18.4384 12.7451 18.5966 12.9034C18.7549 13.0616 18.8438 13.2762 18.8438 13.5C18.8438 13.7238 18.7549 13.9384 18.5966 14.0966C18.4384 14.2549 18.2238 14.3438 18 14.3438C17.7762 14.3438 17.5616 14.2549 17.4034 14.0966C17.2451 13.9384 17.1562 13.7238 17.1562 13.5C17.1562 13.2762 17.2451 13.0616 17.4034 12.9034C17.5616 12.7451 17.7762 12.6563 18 12.6563ZM9 8.71875C9.22378 8.71875 9.43839 8.80765 9.59662 8.96588C9.75485 9.12412 9.84375 9.33873 9.84375 9.5625C9.84375 9.78628 9.75485 10.0009 9.59662 10.1591C9.43839 10.3174 9.22378 10.4063 9 10.4063C8.77622 10.4063 8.56161 10.3174 8.40338 10.1591C8.24514 10.0009 8.15625 9.78628 8.15625 9.5625C8.15625 9.33873 8.24514 9.12412 8.40338 8.96588C8.56161 8.80765 8.77622 8.71875 9 8.71875Z" fill="black"/>
</svg>
